{
 "accessors": [
  {
   "componentType": 5126,
   "type": "VEC3",
   "count": 713,
   "max": [
    21.839000701904297,
    -18.79800033569336,
    120.30799865722656
   ],
   "min": [
    17.479999542236328,
    -18.9950008392334,
    111.16699981689453
   ],
   "bufferView": 0
  },
  {
   "componentType": 5126,
   "type": "VEC3",
   "count": 713,
   "bufferView": 1
  },
  {
   "componentType": 5123,
   "type": "SCALAR",
   "count": 1512,
   "bufferView": 2
  },
  {
   "componentType": 5126,
   "type": "VEC3",
   "count": 4728,
   "max": [
    33,
    -10,
    142.5489959716797
   ],
   "min": [
    -27.18199920654297,
    -26,
    19.173999786376953
   ],
   "bufferView": 3
  },
  {
   "componentType": 5126,
   "type": "VEC3",
   "count": 4728,
   "bufferView": 4
  },
  {
   "componentType": 5123,
   "type": "SCALAR",
   "count": 10038,
   "bufferView": 5
  },
  {
   "componentType": 5126,
   "type": "VEC3",
   "count": 9859,
   "max": [
    37.9739990234375,
    -5,
    40.86800003051758
   ],
   "min": [
    -36.974998474121094,
    -33,
    6.676000118255615
   ],
   "bufferView": 6
  },
  {
   "componentType": 5126,
   "type": "VEC3",
   "count": 9859,
   "bufferView": 7
  },
  {
   "componentType": 5123,
   "type": "SCALAR",
   "count": 27276,
   "bufferView": 8
  }
 ],
 "asset": {
  "version": "2.0",
  "generator": "clara.io"
 },
 "bufferViews": [
  {
   "buffer": 0,
   "byteOffset": 0,
   "byteLength": 8556,
   "target": 34962,
   "byteStride": 12
  },
  {
   "buffer": 0,
   "byteOffset": 8556,
   "byteLength": 8556,
   "target": 34962,
   "byteStride": 12
  },
  {
   "buffer": 0,
   "byteOffset": 17112,
   "byteLength": 3024,
   "target": 34963
  },
  {
   "buffer": 0,
   "byteOffset": 20136,
   "byteLength": 56736,
   "target": 34962,
   "byteStride": 12
  },
  {
   "buffer": 0,
   "byteOffset": 76872,
   "byteLength": 56736,
   "target": 34962,
   "byteStride": 12
  },
  {
   "buffer": 0,
   "byteOffset": 133608,
   "byteLength": 20076,
   "target": 34963
  },
  {
   "buffer": 0,
   "byteOffset": 153684,
   "byteLength": 118308,
   "target": 34962,
   "byteStride": 12
  },
  {
   "buffer": 0,
   "byteOffset": 271992,
   "byteLength": 118308,
   "target": 34962,
   "byteStride": 12
  },
  {
   "buffer": 0,
   "byteOffset": 390300,
   "byteLength": 54552,
   "target": 34963
  }
 ],
 "buffers": [
  {
   "byteLength": 444852,
   "uri": "data:application/octet-stream;base64,"
  }
 ],
 "materials": [
  {
   "name": "color_16729955",
   "pbrMetallicRoughness": {
    "baseColorFactor": [
     1,
     0.2784313725490196,
     0.38823529411764707,
     1
    ],
    "roughnessFactor": 0.25,
    "metallicFactor": 0
   }
  },
  {
   "name": "color_16740486",
   "pbrMetallicRoughness": {
    "baseColorFactor": [
     1,
     0.4392156862745098,
     0.5254901960784314,
     1
    ],
    "roughnessFactor": 0.25,
    "metallicFactor": 0
   }
  },
  {
   "name": "color_16777215",
   "pbrMetallicRoughness": {
    "roughnessFactor": 0.25,
    "metallicFactor": 0
   }
  }
 ],
 "meshes": [
  {
   "primitives": [
    {
     "indices": 2,
     "material": 2,
     "mode": 4,
     "attributes": {
      "POSITION": 0,
      "NORMAL": 1
     }
    }
   ]
  },
  {
   "primitives": [
    {
     "indices": 5,
     "material": 0,
     "mode": 4,
     "attributes": {
      "POSITION": 3,
      "NORMAL": 4
     }
    }
   ]
  },
  {
   "primitives": [
    {
     "indices": 8,
     "material": 1,
     "mode": 4,
     "attributes": {
      "POSITION": 6,
      "NORMAL": 7
     }
    }
   ]
  }
 ],
 "nodes": [
  {
   "name": "tinker_root",
   "scale": [
    0.009999999776482582,
    0.009999999776482582,
    0.009999999776482582
   ],
   "children": [
    1,
    2,
    3
   ]
  },
  {
   "name": "group_0_16777215",
   "mesh": 0
  },
  {
   "name": "group_0_16729955",
   "mesh": 1
  },
  {
   "name": "group_0_16740486",
   "mesh": 2
  }
 ],
 "scene": 0,
 "scenes": [
  {
   "nodes": [
    0
   ]
  }
 ]
}